<mxfile host="app.diagrams.net" agent="Mozilla/5.0 (Windows NT 10.0; Win64; x64) AppleWebKit/537.36 (KHTML, like Gecko) Chrome/129.0.0.0 Safari/537.36 Edg/129.0.0.0" version="24.7.17">
  <diagram name="第 1 页" id="R0EMuT_VIF-QQ9O2B0tm">
    <mxGraphModel dx="1977" dy="979" grid="1" gridSize="10" guides="1" tooltips="1" connect="1" arrows="1" fold="1" page="1" pageScale="1" pageWidth="3300" pageHeight="2339" math="0" shadow="0">
      <root>
        <mxCell id="0" />
        <mxCell id="1" parent="0" />
        <mxCell id="7GsKX0eduVZCfFBKI-sv-1" value="" style="rounded=0;whiteSpace=wrap;html=1;fontFamily=宋体;labelBackgroundColor=none;fontStyle=1" parent="1" vertex="1">
          <mxGeometry x="180" y="143" width="740" height="105" as="geometry" />
        </mxCell>
        <mxCell id="7GsKX0eduVZCfFBKI-sv-2" value="&lt;font style=&quot;font-size: 21px;&quot;&gt;代码续写&lt;/font&gt;" style="rounded=0;whiteSpace=wrap;html=1;fontFamily=宋体;fillColor=#d5e8d4;strokeColor=#82b366;labelBackgroundColor=none;fontStyle=1" parent="1" vertex="1">
          <mxGeometry x="260" y="160" width="250" height="70" as="geometry" />
        </mxCell>
        <mxCell id="7GsKX0eduVZCfFBKI-sv-4" value="&lt;font style=&quot;font-size: 21px;&quot;&gt;代码问答&lt;/font&gt;" style="rounded=0;whiteSpace=wrap;html=1;fontFamily=宋体;fillColor=#d5e8d4;strokeColor=#82b366;labelBackgroundColor=none;fontStyle=1" parent="1" vertex="1">
          <mxGeometry x="590" y="160" width="250" height="70" as="geometry" />
        </mxCell>
        <mxCell id="7GsKX0eduVZCfFBKI-sv-5" value="&lt;font style=&quot;font-size: 21px;&quot;&gt;&lt;span&gt;应用层&lt;/span&gt;&lt;/font&gt;" style="text;strokeColor=none;fillColor=none;html=1;align=center;verticalAlign=middle;whiteSpace=wrap;rounded=0;fontSize=20;fontFamily=宋体;labelBackgroundColor=none;fontStyle=1" parent="1" vertex="1">
          <mxGeometry x="80" y="180" width="70" height="30" as="geometry" />
        </mxCell>
        <mxCell id="7GsKX0eduVZCfFBKI-sv-6" value="" style="rounded=0;whiteSpace=wrap;html=1;fontFamily=宋体;labelBackgroundColor=none;fontStyle=1" parent="1" vertex="1">
          <mxGeometry x="180" y="269" width="740" height="107" as="geometry" />
        </mxCell>
        <mxCell id="7GsKX0eduVZCfFBKI-sv-7" value="&lt;font style=&quot;font-size: 21px;&quot;&gt;权限管理&lt;/font&gt;" style="rounded=0;whiteSpace=wrap;html=1;fontFamily=宋体;fillColor=#e1d5e7;strokeColor=#9673a6;labelBackgroundColor=none;fontStyle=1" parent="1" vertex="1">
          <mxGeometry x="230" y="289.5" width="130" height="70" as="geometry" />
        </mxCell>
        <mxCell id="7GsKX0eduVZCfFBKI-sv-8" value="&lt;font style=&quot;font-size: 21px;&quot;&gt;&lt;font&gt;Promot&lt;/font&gt;改写&lt;/font&gt;" style="rounded=0;whiteSpace=wrap;html=1;fontFamily=宋体;fillColor=#e1d5e7;strokeColor=#9673a6;labelBackgroundColor=none;fontStyle=1" parent="1" vertex="1">
          <mxGeometry x="400" y="289.5" width="130" height="70" as="geometry" />
        </mxCell>
        <mxCell id="7GsKX0eduVZCfFBKI-sv-9" value="&lt;font style=&quot;font-size: 21px;&quot;&gt;&lt;span&gt;服务层&lt;/span&gt;&lt;/font&gt;" style="text;strokeColor=none;fillColor=none;html=1;align=center;verticalAlign=middle;whiteSpace=wrap;rounded=0;fontSize=20;fontFamily=宋体;labelBackgroundColor=none;fontStyle=1" parent="1" vertex="1">
          <mxGeometry x="80" y="307" width="70" height="30" as="geometry" />
        </mxCell>
        <mxCell id="7GsKX0eduVZCfFBKI-sv-10" value="&lt;font&gt;&lt;span style=&quot;font-size: 21px;&quot;&gt;日志管理&lt;/span&gt;&lt;/font&gt;" style="rounded=0;whiteSpace=wrap;html=1;fontFamily=宋体;fillColor=#e1d5e7;strokeColor=#9673a6;labelBackgroundColor=none;fontStyle=1" parent="1" vertex="1">
          <mxGeometry x="570" y="289.5" width="130" height="70" as="geometry" />
        </mxCell>
        <mxCell id="7GsKX0eduVZCfFBKI-sv-11" value="&lt;font&gt;&lt;span style=&quot;font-size: 21px;&quot;&gt;模型调用&lt;/span&gt;&lt;/font&gt;" style="rounded=0;whiteSpace=wrap;html=1;fontFamily=宋体;fillColor=#e1d5e7;strokeColor=#9673a6;labelBackgroundColor=none;fontStyle=1" parent="1" vertex="1">
          <mxGeometry x="740" y="289.5" width="130" height="70" as="geometry" />
        </mxCell>
        <mxCell id="7GsKX0eduVZCfFBKI-sv-18" value="" style="rounded=0;whiteSpace=wrap;html=1;fontFamily=宋体;labelBackgroundColor=none;fontStyle=1" parent="1" vertex="1">
          <mxGeometry x="180" y="401" width="740" height="108" as="geometry" />
        </mxCell>
        <mxCell id="7GsKX0eduVZCfFBKI-sv-19" value="&lt;font style=&quot;font-size: 21px;&quot;&gt;CodeGeeX4&lt;/font&gt;" style="rounded=0;whiteSpace=wrap;html=1;fontFamily=宋体;fillColor=#dae8fc;strokeColor=#6c8ebf;labelBackgroundColor=none;fontStyle=1" parent="1" vertex="1">
          <mxGeometry x="242.5" y="420" width="260" height="70" as="geometry" />
        </mxCell>
        <mxCell id="7GsKX0eduVZCfFBKI-sv-20" value="&lt;font&gt;&lt;span style=&quot;font-size: 21px;&quot;&gt;Qwen2.5-Coder&lt;/span&gt;&lt;/font&gt;" style="rounded=0;whiteSpace=wrap;html=1;fontFamily=宋体;fillColor=#dae8fc;strokeColor=#6c8ebf;labelBackgroundColor=none;fontStyle=1" parent="1" vertex="1">
          <mxGeometry x="597.5" y="420" width="260" height="70" as="geometry" />
        </mxCell>
        <mxCell id="7GsKX0eduVZCfFBKI-sv-21" value="&lt;font style=&quot;font-size: 21px;&quot;&gt;&lt;span&gt;模型层&lt;/span&gt;&lt;/font&gt;" style="text;strokeColor=none;fillColor=none;html=1;align=center;verticalAlign=middle;whiteSpace=wrap;rounded=0;fontSize=20;fontFamily=宋体;labelBackgroundColor=none;fontStyle=1" parent="1" vertex="1">
          <mxGeometry x="80" y="440" width="70" height="30" as="geometry" />
        </mxCell>
        <mxCell id="7GsKX0eduVZCfFBKI-sv-26" value="&lt;font style=&quot;font-size: 22px;&quot;&gt;Client&lt;/font&gt;" style="rounded=0;whiteSpace=wrap;html=1;fontFamily=宋体;fontStyle=1;fillColor=#dae8fc;strokeColor=#6c8ebf;" parent="1" vertex="1">
          <mxGeometry x="1423" y="33" width="252" height="50" as="geometry" />
        </mxCell>
        <mxCell id="7GsKX0eduVZCfFBKI-sv-27" value="" style="rounded=0;whiteSpace=wrap;html=1;fontFamily=宋体;fontStyle=1" parent="1" vertex="1">
          <mxGeometry x="1117" y="123" width="870" height="300" as="geometry" />
        </mxCell>
        <mxCell id="7GsKX0eduVZCfFBKI-sv-28" value="&lt;font style=&quot;font-size: 21px;&quot;&gt;K8s集群&lt;/font&gt;" style="text;strokeColor=none;fillColor=none;html=1;align=center;verticalAlign=middle;whiteSpace=wrap;rounded=0;fontSize=21;fontFamily=宋体;fontStyle=1" parent="1" vertex="1">
          <mxGeometry x="1117" y="148" width="100" height="30" as="geometry" />
        </mxCell>
        <mxCell id="7GsKX0eduVZCfFBKI-sv-29" value="" style="rounded=0;whiteSpace=wrap;html=1;fontFamily=宋体;fontStyle=1;fillColor=#d5e8d4;strokeColor=#82b366;" parent="1" vertex="1">
          <mxGeometry x="1277" y="133" width="567" height="80" as="geometry" />
        </mxCell>
        <mxCell id="7GsKX0eduVZCfFBKI-sv-30" value="&lt;font&gt;应用前台Pods&lt;/font&gt;" style="text;strokeColor=none;fillColor=none;html=1;align=center;verticalAlign=middle;whiteSpace=wrap;rounded=0;fontSize=20;fontFamily=宋体;fontStyle=1" parent="1" vertex="1">
          <mxGeometry x="1287" y="158" width="140" height="30" as="geometry" />
        </mxCell>
        <mxCell id="7GsKX0eduVZCfFBKI-sv-31" value="&lt;font style=&quot;font-size: 19px;&quot;&gt;统一API网关&lt;/font&gt;" style="rounded=0;whiteSpace=wrap;html=1;fontFamily=宋体;fontStyle=1;fillColor=#60a917;fontColor=#ffffff;strokeColor=#2D7600;" parent="1" vertex="1">
          <mxGeometry x="1487" y="148" width="285" height="50" as="geometry" />
        </mxCell>
        <mxCell id="7GsKX0eduVZCfFBKI-sv-32" value="" style="rounded=0;whiteSpace=wrap;html=1;fontFamily=宋体;fontStyle=1;fillColor=#ffe6cc;strokeColor=#d79b00;" parent="1" vertex="1">
          <mxGeometry x="1177" y="253" width="330" height="130" as="geometry" />
        </mxCell>
        <mxCell id="7GsKX0eduVZCfFBKI-sv-33" value="&lt;font style=&quot;font-size: 20px;&quot;&gt;LLM&lt;/font&gt;" style="rounded=0;whiteSpace=wrap;html=1;fontFamily=宋体;fontStyle=1" parent="1" vertex="1">
          <mxGeometry x="1197" y="313" width="130" height="60" as="geometry" />
        </mxCell>
        <mxCell id="7GsKX0eduVZCfFBKI-sv-34" value="&lt;font style=&quot;font-size: 20px;&quot;&gt;LLM&lt;/font&gt;" style="rounded=0;whiteSpace=wrap;html=1;fontFamily=宋体;fontStyle=1" parent="1" vertex="1">
          <mxGeometry x="1357" y="313" width="130" height="60" as="geometry" />
        </mxCell>
        <mxCell id="7GsKX0eduVZCfFBKI-sv-35" value="&lt;font&gt;大模型服务Pods&lt;/font&gt;" style="text;strokeColor=none;fillColor=none;html=1;align=center;verticalAlign=middle;whiteSpace=wrap;rounded=0;fontSize=20;fontFamily=宋体;fontStyle=1" parent="1" vertex="1">
          <mxGeometry x="1262" y="273" width="160" height="30" as="geometry" />
        </mxCell>
        <mxCell id="7GsKX0eduVZCfFBKI-sv-36" value="" style="rounded=0;whiteSpace=wrap;html=1;fontFamily=宋体;fontStyle=1;fillColor=#e1d5e7;strokeColor=#9673a6;" parent="1" vertex="1">
          <mxGeometry x="1609" y="253" width="330" height="130" as="geometry" />
        </mxCell>
        <mxCell id="7GsKX0eduVZCfFBKI-sv-37" value="&lt;font style=&quot;font-size: 20px;&quot;&gt;Redis&lt;/font&gt;" style="rounded=0;whiteSpace=wrap;html=1;fontFamily=宋体;fontStyle=1" parent="1" vertex="1">
          <mxGeometry x="1629" y="313" width="130" height="60" as="geometry" />
        </mxCell>
        <mxCell id="7GsKX0eduVZCfFBKI-sv-38" value="&lt;font style=&quot;font-size: 20px;&quot;&gt;Mysql&lt;/font&gt;" style="rounded=0;whiteSpace=wrap;html=1;fontFamily=宋体;fontStyle=1" parent="1" vertex="1">
          <mxGeometry x="1789" y="313" width="130" height="60" as="geometry" />
        </mxCell>
        <mxCell id="7GsKX0eduVZCfFBKI-sv-39" value="&lt;font&gt;数据库服务Pods&lt;/font&gt;" style="text;strokeColor=none;fillColor=none;html=1;align=center;verticalAlign=middle;whiteSpace=wrap;rounded=0;fontSize=20;fontFamily=宋体;fontStyle=1" parent="1" vertex="1">
          <mxGeometry x="1694" y="273" width="160" height="30" as="geometry" />
        </mxCell>
        <mxCell id="7GsKX0eduVZCfFBKI-sv-40" value="CPU节点" style="rounded=0;whiteSpace=wrap;html=1;fontFamily=宋体;fontSize=21;fontStyle=1;fillColor=#f8cecc;strokeColor=#b85450;" parent="1" vertex="1">
          <mxGeometry x="1247" y="463" width="250" height="80" as="geometry" />
        </mxCell>
        <mxCell id="7GsKX0eduVZCfFBKI-sv-42" value="GPU节点" style="rounded=0;whiteSpace=wrap;html=1;fontFamily=宋体;fontSize=21;fontStyle=1;fillColor=#f8cecc;strokeColor=#b85450;" parent="1" vertex="1">
          <mxGeometry x="1637" y="463" width="230" height="80" as="geometry" />
        </mxCell>
        <mxCell id="7GsKX0eduVZCfFBKI-sv-43" value="" style="shape=singleArrow;whiteSpace=wrap;html=1;arrowWidth=0.4;arrowSize=0.4;fontFamily=宋体;rotation=-90;fontStyle=1" parent="1" vertex="1">
          <mxGeometry x="1357" y="423" width="30" height="40" as="geometry" />
        </mxCell>
        <mxCell id="7GsKX0eduVZCfFBKI-sv-45" value="" style="shape=singleArrow;whiteSpace=wrap;html=1;arrowWidth=0.4;arrowSize=0.4;fontFamily=宋体;rotation=-90;fontStyle=1" parent="1" vertex="1">
          <mxGeometry x="1737" y="423" width="30" height="40" as="geometry" />
        </mxCell>
        <mxCell id="7GsKX0eduVZCfFBKI-sv-46" value="" style="shape=singleArrow;whiteSpace=wrap;html=1;arrowWidth=0.4;arrowSize=0.4;fontFamily=宋体;rotation=90;fontStyle=1" parent="1" vertex="1">
          <mxGeometry x="1537" y="83" width="30" height="40" as="geometry" />
        </mxCell>
        <mxCell id="7GsKX0eduVZCfFBKI-sv-47" value="" style="edgeStyle=none;orthogonalLoop=1;jettySize=auto;html=1;rounded=0;fontFamily=宋体;fontSize=16;startSize=14;endArrow=open;endSize=14;sourcePerimeterSpacing=8;targetPerimeterSpacing=8;curved=1;fontStyle=1" parent="1" edge="1">
          <mxGeometry width="140" relative="1" as="geometry">
            <mxPoint x="1372" y="253" as="sourcePoint" />
            <mxPoint x="1371.78" y="213" as="targetPoint" />
            <Array as="points" />
          </mxGeometry>
        </mxCell>
        <mxCell id="7GsKX0eduVZCfFBKI-sv-48" value="" style="edgeStyle=none;orthogonalLoop=1;jettySize=auto;html=1;rounded=0;fontFamily=宋体;fontSize=16;startSize=14;endArrow=open;endSize=14;sourcePerimeterSpacing=8;targetPerimeterSpacing=8;curved=1;entryX=0.675;entryY=-0.001;entryDx=0;entryDy=0;entryPerimeter=0;fontStyle=1" parent="1" target="7GsKX0eduVZCfFBKI-sv-32" edge="1">
          <mxGeometry width="140" relative="1" as="geometry">
            <mxPoint x="1400" y="213" as="sourcePoint" />
            <mxPoint x="1381.78" y="223" as="targetPoint" />
            <Array as="points" />
          </mxGeometry>
        </mxCell>
        <mxCell id="7GsKX0eduVZCfFBKI-sv-49" value="" style="edgeStyle=none;orthogonalLoop=1;jettySize=auto;html=1;rounded=0;fontFamily=宋体;fontSize=16;startSize=14;endArrow=open;endSize=14;sourcePerimeterSpacing=8;targetPerimeterSpacing=8;curved=1;fontStyle=1" parent="1" edge="1">
          <mxGeometry width="140" relative="1" as="geometry">
            <mxPoint x="1697.22" y="253" as="sourcePoint" />
            <mxPoint x="1697" y="213" as="targetPoint" />
            <Array as="points" />
          </mxGeometry>
        </mxCell>
        <mxCell id="7GsKX0eduVZCfFBKI-sv-50" value="" style="edgeStyle=none;orthogonalLoop=1;jettySize=auto;html=1;rounded=0;fontFamily=宋体;fontSize=16;startSize=14;endArrow=open;endSize=14;sourcePerimeterSpacing=8;targetPerimeterSpacing=8;curved=1;entryX=0.675;entryY=-0.001;entryDx=0;entryDy=0;entryPerimeter=0;fontStyle=1" parent="1" edge="1">
          <mxGeometry width="140" relative="1" as="geometry">
            <mxPoint x="1725.2200000000003" y="213" as="sourcePoint" />
            <mxPoint x="1725.2200000000003" y="253" as="targetPoint" />
            <Array as="points" />
          </mxGeometry>
        </mxCell>
        <mxCell id="7GsKX0eduVZCfFBKI-sv-51" value="&lt;font&gt;http&lt;/font&gt;" style="text;strokeColor=none;fillColor=none;html=1;align=center;verticalAlign=middle;whiteSpace=wrap;rounded=0;fontSize=20;fontFamily=宋体;fontStyle=1" parent="1" vertex="1">
          <mxGeometry x="1407" y="218" width="60" height="30" as="geometry" />
        </mxCell>
        <mxCell id="8tWyTucmSmF3DyOcgafZ-1" value="" style="ellipse;whiteSpace=wrap;html=1;fontFamily=宋体;fontStyle=1;fillColor=#fff2cc;strokeColor=#d6b656;" vertex="1" parent="1">
          <mxGeometry x="489" y="643" width="153" height="40" as="geometry" />
        </mxCell>
        <mxCell id="8tWyTucmSmF3DyOcgafZ-2" value="&lt;font style=&quot;font-size: 20px;&quot;&gt;用户IP/OA名(Access Key)&lt;/font&gt;" style="rounded=0;whiteSpace=wrap;html=1;fontFamily=宋体;fontStyle=1;fillColor=#dae8fc;strokeColor=#6c8ebf;" vertex="1" parent="1">
          <mxGeometry x="430" y="722" width="271" height="37" as="geometry" />
        </mxCell>
        <mxCell id="8tWyTucmSmF3DyOcgafZ-3" value="&lt;font style=&quot;font-size: 20px;&quot;&gt;Redis查询&lt;/font&gt;" style="rhombus;whiteSpace=wrap;html=1;fontFamily=宋体;fontStyle=1;fillColor=#f8cecc;strokeColor=#b85450;" vertex="1" parent="1">
          <mxGeometry x="466" y="811" width="199" height="62" as="geometry" />
        </mxCell>
        <mxCell id="8tWyTucmSmF3DyOcgafZ-5" value="&lt;font style=&quot;font-size: 20px;&quot;&gt;返回错误信息&lt;/font&gt;" style="rounded=0;whiteSpace=wrap;html=1;fontFamily=宋体;fontStyle=1;fillColor=#dae8fc;strokeColor=#6c8ebf;" vertex="1" parent="1">
          <mxGeometry x="750" y="925" width="140" height="43" as="geometry" />
        </mxCell>
        <mxCell id="8tWyTucmSmF3DyOcgafZ-8" value="&lt;font style=&quot;font-size: 20px;&quot;&gt;放行&lt;/font&gt;" style="rounded=0;whiteSpace=wrap;html=1;fontFamily=宋体;fillColor=#dae8fc;strokeColor=#6c8ebf;fontStyle=1" vertex="1" parent="1">
          <mxGeometry x="497.5" y="1024" width="136" height="38" as="geometry" />
        </mxCell>
        <mxCell id="8tWyTucmSmF3DyOcgafZ-10" value="" style="ellipse;whiteSpace=wrap;html=1;fontFamily=宋体;fillColor=#fff2cc;strokeColor=#d6b656;" vertex="1" parent="1">
          <mxGeometry x="489" y="1104" width="153" height="40" as="geometry" />
        </mxCell>
        <mxCell id="8tWyTucmSmF3DyOcgafZ-11" value="" style="edgeStyle=none;orthogonalLoop=1;jettySize=auto;html=1;rounded=0;fontFamily=Architects Daughter;fontSource=https%3A%2F%2Ffonts.googleapis.com%2Fcss%3Ffamily%3DArchitects%2BDaughter;fontSize=16;startSize=14;endArrow=open;endSize=14;sourcePerimeterSpacing=8;targetPerimeterSpacing=8;curved=1;exitX=0.5;exitY=1;exitDx=0;exitDy=0;entryX=0.5;entryY=0;entryDx=0;entryDy=0;fontStyle=1" edge="1" parent="1" source="8tWyTucmSmF3DyOcgafZ-1" target="8tWyTucmSmF3DyOcgafZ-2">
          <mxGeometry width="140" relative="1" as="geometry">
            <mxPoint x="601" y="704" as="sourcePoint" />
            <mxPoint x="741" y="704" as="targetPoint" />
            <Array as="points" />
          </mxGeometry>
        </mxCell>
        <mxCell id="8tWyTucmSmF3DyOcgafZ-12" value="" style="edgeStyle=none;orthogonalLoop=1;jettySize=auto;html=1;rounded=0;fontFamily=Architects Daughter;fontSource=https%3A%2F%2Ffonts.googleapis.com%2Fcss%3Ffamily%3DArchitects%2BDaughter;fontSize=16;startSize=14;endArrow=open;endSize=14;sourcePerimeterSpacing=8;targetPerimeterSpacing=8;curved=1;exitX=0.5;exitY=1;exitDx=0;exitDy=0;entryX=0.5;entryY=0;entryDx=0;entryDy=0;fontStyle=1" edge="1" parent="1" source="8tWyTucmSmF3DyOcgafZ-2" target="8tWyTucmSmF3DyOcgafZ-3">
          <mxGeometry width="140" relative="1" as="geometry">
            <mxPoint x="503" y="783" as="sourcePoint" />
            <mxPoint x="643" y="783" as="targetPoint" />
            <Array as="points" />
          </mxGeometry>
        </mxCell>
        <mxCell id="8tWyTucmSmF3DyOcgafZ-13" value="" style="edgeStyle=none;orthogonalLoop=1;jettySize=auto;html=1;rounded=0;fontFamily=Architects Daughter;fontSource=https%3A%2F%2Ffonts.googleapis.com%2Fcss%3Ffamily%3DArchitects%2BDaughter;fontSize=16;startSize=14;endArrow=open;endSize=14;sourcePerimeterSpacing=8;targetPerimeterSpacing=8;curved=1;exitX=0.5;exitY=1;exitDx=0;exitDy=0;entryX=0.5;entryY=0;entryDx=0;entryDy=0;fontStyle=1" edge="1" parent="1" source="8tWyTucmSmF3DyOcgafZ-8" target="8tWyTucmSmF3DyOcgafZ-10">
          <mxGeometry width="140" relative="1" as="geometry">
            <mxPoint x="677" y="1073" as="sourcePoint" />
            <mxPoint x="817" y="1073" as="targetPoint" />
            <Array as="points" />
          </mxGeometry>
        </mxCell>
        <mxCell id="8tWyTucmSmF3DyOcgafZ-14" value="" style="edgeStyle=orthogonalEdgeStyle;orthogonalLoop=1;jettySize=auto;html=1;rounded=0;fontFamily=Architects Daughter;fontSource=https%3A%2F%2Ffonts.googleapis.com%2Fcss%3Ffamily%3DArchitects%2BDaughter;fontSize=16;startSize=14;endArrow=open;endSize=14;sourcePerimeterSpacing=8;targetPerimeterSpacing=8;exitX=0;exitY=0.5;exitDx=0;exitDy=0;entryX=0;entryY=0.5;entryDx=0;entryDy=0;fontStyle=1" edge="1" parent="1" source="8tWyTucmSmF3DyOcgafZ-3" target="8tWyTucmSmF3DyOcgafZ-8">
          <mxGeometry width="140" relative="1" as="geometry">
            <mxPoint x="350" y="884" as="sourcePoint" />
            <mxPoint x="498" y="1052" as="targetPoint" />
            <Array as="points">
              <mxPoint x="378" y="842" />
              <mxPoint x="378" y="1043" />
            </Array>
          </mxGeometry>
        </mxCell>
        <mxCell id="8tWyTucmSmF3DyOcgafZ-15" value="&lt;font face=&quot;宋体&quot;&gt;存在&lt;/font&gt;" style="text;strokeColor=none;fillColor=none;html=1;align=center;verticalAlign=middle;whiteSpace=wrap;rounded=0;fontSize=20;fontFamily=Architects Daughter;fontSource=https%3A%2F%2Ffonts.googleapis.com%2Fcss%3Ffamily%3DArchitects%2BDaughter;fontStyle=1" vertex="1" parent="1">
          <mxGeometry x="317" y="925" width="60" height="30" as="geometry" />
        </mxCell>
        <mxCell id="8tWyTucmSmF3DyOcgafZ-16" value="&lt;font face=&quot;宋体&quot;&gt;存在&lt;/font&gt;" style="text;strokeColor=none;fillColor=none;html=1;align=center;verticalAlign=middle;whiteSpace=wrap;rounded=0;fontSize=20;fontFamily=Architects Daughter;fontSource=https%3A%2F%2Ffonts.googleapis.com%2Fcss%3Ffamily%3DArchitects%2BDaughter;fontStyle=1" vertex="1" parent="1">
          <mxGeometry x="570" y="978" width="60" height="30" as="geometry" />
        </mxCell>
        <mxCell id="8tWyTucmSmF3DyOcgafZ-17" value="&lt;font face=&quot;宋体&quot;&gt;不存在&lt;/font&gt;" style="text;strokeColor=none;fillColor=none;html=1;align=center;verticalAlign=middle;whiteSpace=wrap;rounded=0;fontSize=20;fontFamily=Architects Daughter;fontSource=https%3A%2F%2Ffonts.googleapis.com%2Fcss%3Ffamily%3DArchitects%2BDaughter;fontStyle=1" vertex="1" parent="1">
          <mxGeometry x="484" y="878" width="76" height="30" as="geometry" />
        </mxCell>
        <mxCell id="8tWyTucmSmF3DyOcgafZ-18" value="&lt;font face=&quot;宋体&quot;&gt;不存在&lt;/font&gt;" style="text;strokeColor=none;fillColor=none;html=1;align=center;verticalAlign=middle;whiteSpace=wrap;rounded=0;fontSize=20;fontFamily=Architects Daughter;fontSource=https%3A%2F%2Ffonts.googleapis.com%2Fcss%3Ffamily%3DArchitects%2BDaughter;fontStyle=1" vertex="1" parent="1">
          <mxGeometry x="669" y="911" width="69" height="30" as="geometry" />
        </mxCell>
        <mxCell id="8tWyTucmSmF3DyOcgafZ-20" value="" style="edgeStyle=orthogonalEdgeStyle;orthogonalLoop=1;jettySize=auto;html=1;rounded=0;fontFamily=Architects Daughter;fontSource=https%3A%2F%2Ffonts.googleapis.com%2Fcss%3Ffamily%3DArchitects%2BDaughter;fontSize=16;startSize=14;endArrow=open;endSize=14;sourcePerimeterSpacing=8;targetPerimeterSpacing=8;exitX=1;exitY=0.5;exitDx=0;exitDy=0;entryX=1;entryY=0.5;entryDx=0;entryDy=0;fontStyle=1" edge="1" parent="1" source="8tWyTucmSmF3DyOcgafZ-8" target="8tWyTucmSmF3DyOcgafZ-3">
          <mxGeometry width="140" relative="1" as="geometry">
            <mxPoint x="714" y="1036" as="sourcePoint" />
            <mxPoint x="860" y="1043" as="targetPoint" />
            <Array as="points">
              <mxPoint x="920" y="1043" />
              <mxPoint x="920" y="842" />
            </Array>
          </mxGeometry>
        </mxCell>
        <mxCell id="8tWyTucmSmF3DyOcgafZ-21" value="&lt;font face=&quot;宋体&quot;&gt;更新&lt;/font&gt;" style="text;strokeColor=none;fillColor=none;html=1;align=center;verticalAlign=middle;whiteSpace=wrap;rounded=0;fontSize=20;fontFamily=Architects Daughter;fontSource=https%3A%2F%2Ffonts.googleapis.com%2Fcss%3Ffamily%3DArchitects%2BDaughter;fontStyle=1" vertex="1" parent="1">
          <mxGeometry x="780" y="811" width="60" height="30" as="geometry" />
        </mxCell>
        <mxCell id="8tWyTucmSmF3DyOcgafZ-24" value="&lt;font style=&quot;font-size: 20px;&quot;&gt;Mysql查询&lt;/font&gt;" style="rhombus;whiteSpace=wrap;html=1;fontFamily=宋体;fontStyle=1;fillColor=#f8cecc;strokeColor=#b85450;" vertex="1" parent="1">
          <mxGeometry x="466" y="915.5" width="199" height="62" as="geometry" />
        </mxCell>
        <mxCell id="8tWyTucmSmF3DyOcgafZ-25" value="" style="edgeStyle=none;orthogonalLoop=1;jettySize=auto;html=1;rounded=0;fontFamily=Architects Daughter;fontSource=https%3A%2F%2Ffonts.googleapis.com%2Fcss%3Ffamily%3DArchitects%2BDaughter;fontSize=16;startSize=14;endArrow=open;endSize=14;sourcePerimeterSpacing=8;targetPerimeterSpacing=8;curved=1;exitX=0.5;exitY=1;exitDx=0;exitDy=0;entryX=0.5;entryY=0;entryDx=0;entryDy=0;" edge="1" parent="1" source="8tWyTucmSmF3DyOcgafZ-3" target="8tWyTucmSmF3DyOcgafZ-24">
          <mxGeometry width="140" relative="1" as="geometry">
            <mxPoint x="630" y="900" as="sourcePoint" />
            <mxPoint x="770" y="900" as="targetPoint" />
            <Array as="points" />
          </mxGeometry>
        </mxCell>
        <mxCell id="8tWyTucmSmF3DyOcgafZ-26" value="" style="edgeStyle=none;orthogonalLoop=1;jettySize=auto;html=1;rounded=0;fontFamily=Architects Daughter;fontSource=https%3A%2F%2Ffonts.googleapis.com%2Fcss%3Ffamily%3DArchitects%2BDaughter;fontSize=16;startSize=14;endArrow=open;endSize=14;sourcePerimeterSpacing=8;targetPerimeterSpacing=8;curved=1;entryX=0.5;entryY=0;entryDx=0;entryDy=0;exitX=0.5;exitY=1;exitDx=0;exitDy=0;" edge="1" parent="1" source="8tWyTucmSmF3DyOcgafZ-24" target="8tWyTucmSmF3DyOcgafZ-8">
          <mxGeometry width="140" relative="1" as="geometry">
            <mxPoint x="550" y="980" as="sourcePoint" />
            <mxPoint x="576" y="926" as="targetPoint" />
            <Array as="points" />
          </mxGeometry>
        </mxCell>
        <mxCell id="8tWyTucmSmF3DyOcgafZ-27" value="" style="edgeStyle=none;orthogonalLoop=1;jettySize=auto;html=1;rounded=0;fontFamily=Architects Daughter;fontSource=https%3A%2F%2Ffonts.googleapis.com%2Fcss%3Ffamily%3DArchitects%2BDaughter;fontSize=16;startSize=14;endArrow=open;endSize=14;sourcePerimeterSpacing=8;targetPerimeterSpacing=8;curved=1;exitX=1;exitY=0.5;exitDx=0;exitDy=0;entryX=0;entryY=0.5;entryDx=0;entryDy=0;" edge="1" parent="1" source="8tWyTucmSmF3DyOcgafZ-24" target="8tWyTucmSmF3DyOcgafZ-5">
          <mxGeometry width="140" relative="1" as="geometry">
            <mxPoint x="650" y="980" as="sourcePoint" />
            <mxPoint x="790" y="980" as="targetPoint" />
            <Array as="points" />
          </mxGeometry>
        </mxCell>
        <mxCell id="8tWyTucmSmF3DyOcgafZ-28" value="" style="ellipse;whiteSpace=wrap;html=1;fontFamily=宋体;fontStyle=1;fillColor=#fff2cc;strokeColor=#d6b656;" vertex="1" parent="1">
          <mxGeometry x="1345.5" y="643" width="153" height="40" as="geometry" />
        </mxCell>
        <mxCell id="8tWyTucmSmF3DyOcgafZ-29" value="&lt;span style=&quot;font-size: 20px;&quot;&gt;模型名称/OA名/Promot&lt;/span&gt;" style="rounded=0;whiteSpace=wrap;html=1;fontFamily=宋体;fontStyle=1;fillColor=#dae8fc;strokeColor=#6c8ebf;" vertex="1" parent="1">
          <mxGeometry x="1286.5" y="722" width="271" height="37" as="geometry" />
        </mxCell>
        <mxCell id="8tWyTucmSmF3DyOcgafZ-30" value="&lt;font style=&quot;font-size: 20px;&quot;&gt;判断模型名称&lt;/font&gt;" style="rhombus;whiteSpace=wrap;html=1;fontFamily=宋体;fontStyle=1;fillColor=#f8cecc;strokeColor=#b85450;" vertex="1" parent="1">
          <mxGeometry x="1322.5" y="795" width="199" height="62" as="geometry" />
        </mxCell>
        <mxCell id="8tWyTucmSmF3DyOcgafZ-31" value="" style="edgeStyle=none;orthogonalLoop=1;jettySize=auto;html=1;rounded=0;fontFamily=Architects Daughter;fontSource=https%3A%2F%2Ffonts.googleapis.com%2Fcss%3Ffamily%3DArchitects%2BDaughter;fontSize=16;startSize=14;endArrow=open;endSize=14;sourcePerimeterSpacing=8;targetPerimeterSpacing=8;curved=1;exitX=0.5;exitY=1;exitDx=0;exitDy=0;entryX=0.5;entryY=0;entryDx=0;entryDy=0;" edge="1" parent="1" source="8tWyTucmSmF3DyOcgafZ-28" target="8tWyTucmSmF3DyOcgafZ-29">
          <mxGeometry width="140" relative="1" as="geometry">
            <mxPoint x="1000" y="780" as="sourcePoint" />
            <mxPoint x="1140" y="780" as="targetPoint" />
            <Array as="points" />
          </mxGeometry>
        </mxCell>
        <mxCell id="8tWyTucmSmF3DyOcgafZ-33" value="" style="edgeStyle=none;orthogonalLoop=1;jettySize=auto;html=1;rounded=0;fontFamily=Architects Daughter;fontSource=https%3A%2F%2Ffonts.googleapis.com%2Fcss%3Ffamily%3DArchitects%2BDaughter;fontSize=16;startSize=14;endArrow=open;endSize=14;sourcePerimeterSpacing=8;targetPerimeterSpacing=8;curved=1;exitX=0.5;exitY=1;exitDx=0;exitDy=0;entryX=0.5;entryY=0;entryDx=0;entryDy=0;" edge="1" parent="1" source="8tWyTucmSmF3DyOcgafZ-29" target="8tWyTucmSmF3DyOcgafZ-30">
          <mxGeometry width="140" relative="1" as="geometry">
            <mxPoint x="1432" y="693" as="sourcePoint" />
            <mxPoint x="1432" y="732" as="targetPoint" />
            <Array as="points" />
          </mxGeometry>
        </mxCell>
        <mxCell id="8tWyTucmSmF3DyOcgafZ-34" value="" style="edgeStyle=none;orthogonalLoop=1;jettySize=auto;html=1;rounded=0;fontFamily=Architects Daughter;fontSource=https%3A%2F%2Ffonts.googleapis.com%2Fcss%3Ffamily%3DArchitects%2BDaughter;fontSize=16;startSize=14;endArrow=open;endSize=14;sourcePerimeterSpacing=8;targetPerimeterSpacing=8;curved=1;exitX=1;exitY=0.5;exitDx=0;exitDy=0;entryX=0;entryY=0.5;entryDx=0;entryDy=0;" edge="1" parent="1" source="8tWyTucmSmF3DyOcgafZ-30" target="8tWyTucmSmF3DyOcgafZ-35">
          <mxGeometry width="140" relative="1" as="geometry">
            <mxPoint x="1400" y="890" as="sourcePoint" />
            <mxPoint x="1560" y="826" as="targetPoint" />
            <Array as="points" />
          </mxGeometry>
        </mxCell>
        <mxCell id="8tWyTucmSmF3DyOcgafZ-35" value="&lt;font face=&quot;宋体&quot; style=&quot;font-size: 20px;&quot;&gt;返回错误信息&lt;/font&gt;" style="rounded=0;whiteSpace=wrap;html=1;fontFamily=Architects Daughter;fontSource=https%3A%2F%2Ffonts.googleapis.com%2Fcss%3Ffamily%3DArchitects%2BDaughter;fillColor=#dae8fc;strokeColor=#6c8ebf;" vertex="1" parent="1">
          <mxGeometry x="1609" y="809" width="150" height="34" as="geometry" />
        </mxCell>
        <mxCell id="8tWyTucmSmF3DyOcgafZ-37" value="不存在" style="text;strokeColor=none;fillColor=none;html=1;align=center;verticalAlign=middle;whiteSpace=wrap;rounded=0;fontSize=20;fontFamily=宋体;" vertex="1" parent="1">
          <mxGeometry x="1521.5" y="795" width="70" height="30" as="geometry" />
        </mxCell>
        <mxCell id="8tWyTucmSmF3DyOcgafZ-38" value="" style="edgeStyle=none;orthogonalLoop=1;jettySize=auto;html=1;rounded=0;fontFamily=Architects Daughter;fontSource=https%3A%2F%2Ffonts.googleapis.com%2Fcss%3Ffamily%3DArchitects%2BDaughter;fontSize=16;startSize=14;endArrow=open;endSize=14;sourcePerimeterSpacing=8;targetPerimeterSpacing=8;curved=1;exitX=0.5;exitY=1;exitDx=0;exitDy=0;entryX=0.5;entryY=0;entryDx=0;entryDy=0;" edge="1" parent="1" source="8tWyTucmSmF3DyOcgafZ-30" target="8tWyTucmSmF3DyOcgafZ-44">
          <mxGeometry width="140" relative="1" as="geometry">
            <mxPoint x="1360" y="930" as="sourcePoint" />
            <mxPoint x="1422" y="900" as="targetPoint" />
            <Array as="points" />
          </mxGeometry>
        </mxCell>
        <mxCell id="8tWyTucmSmF3DyOcgafZ-39" value="CodeGeex" style="text;strokeColor=none;fillColor=none;html=1;align=center;verticalAlign=middle;whiteSpace=wrap;rounded=0;fontSize=20;fontFamily=宋体;" vertex="1" parent="1">
          <mxGeometry x="1437" y="857" width="70" height="30" as="geometry" />
        </mxCell>
        <mxCell id="8tWyTucmSmF3DyOcgafZ-41" value="&lt;font face=&quot;宋体&quot; style=&quot;font-size: 20px;&quot;&gt;改写Promot&lt;/font&gt;" style="rounded=0;whiteSpace=wrap;html=1;fontFamily=Architects Daughter;fontSource=https%3A%2F%2Ffonts.googleapis.com%2Fcss%3Ffamily%3DArchitects%2BDaughter;fillColor=#dae8fc;strokeColor=#6c8ebf;" vertex="1" parent="1">
          <mxGeometry x="1177" y="940.5" width="124.5" height="37" as="geometry" />
        </mxCell>
        <mxCell id="8tWyTucmSmF3DyOcgafZ-42" value="" style="edgeStyle=orthogonalEdgeStyle;orthogonalLoop=1;jettySize=auto;html=1;rounded=0;fontFamily=Architects Daughter;fontSource=https%3A%2F%2Ffonts.googleapis.com%2Fcss%3Ffamily%3DArchitects%2BDaughter;fontSize=16;startSize=14;endArrow=open;endSize=14;sourcePerimeterSpacing=8;targetPerimeterSpacing=8;exitX=0;exitY=0.5;exitDx=0;exitDy=0;entryX=0.5;entryY=0;entryDx=0;entryDy=0;" edge="1" parent="1" source="8tWyTucmSmF3DyOcgafZ-30" target="8tWyTucmSmF3DyOcgafZ-41">
          <mxGeometry width="140" relative="1" as="geometry">
            <mxPoint x="1180" y="830" as="sourcePoint" />
            <mxPoint x="1250" y="880" as="targetPoint" />
          </mxGeometry>
        </mxCell>
        <mxCell id="8tWyTucmSmF3DyOcgafZ-43" value="Qwen2.5-coder" style="text;strokeColor=none;fillColor=none;html=1;align=center;verticalAlign=middle;whiteSpace=wrap;rounded=0;fontSize=20;fontFamily=宋体;" vertex="1" parent="1">
          <mxGeometry x="1226.5" y="857" width="160.5" height="30" as="geometry" />
        </mxCell>
        <mxCell id="8tWyTucmSmF3DyOcgafZ-44" value="&lt;font face=&quot;宋体&quot; style=&quot;font-size: 20px;&quot;&gt;模型调用&lt;/font&gt;" style="rounded=0;whiteSpace=wrap;html=1;fontFamily=Architects Daughter;fontSource=https%3A%2F%2Ffonts.googleapis.com%2Fcss%3Ffamily%3DArchitects%2BDaughter;fillColor=#dae8fc;strokeColor=#6c8ebf;" vertex="1" parent="1">
          <mxGeometry x="1340" y="926.5" width="163.5" height="65" as="geometry" />
        </mxCell>
        <mxCell id="8tWyTucmSmF3DyOcgafZ-45" value="" style="edgeStyle=none;orthogonalLoop=1;jettySize=auto;html=1;rounded=0;fontFamily=Architects Daughter;fontSource=https%3A%2F%2Ffonts.googleapis.com%2Fcss%3Ffamily%3DArchitects%2BDaughter;fontSize=16;startSize=14;endArrow=open;endSize=14;sourcePerimeterSpacing=8;targetPerimeterSpacing=8;curved=1;exitX=1;exitY=0.5;exitDx=0;exitDy=0;entryX=0;entryY=0.5;entryDx=0;entryDy=0;" edge="1" parent="1" source="8tWyTucmSmF3DyOcgafZ-41" target="8tWyTucmSmF3DyOcgafZ-44">
          <mxGeometry width="140" relative="1" as="geometry">
            <mxPoint x="1270" y="1000" as="sourcePoint" />
            <mxPoint x="1410" y="1000" as="targetPoint" />
            <Array as="points" />
          </mxGeometry>
        </mxCell>
        <mxCell id="8tWyTucmSmF3DyOcgafZ-46" value="" style="ellipse;whiteSpace=wrap;html=1;fontFamily=宋体;fontStyle=1;fillColor=#fff2cc;strokeColor=#d6b656;" vertex="1" parent="1">
          <mxGeometry x="1345.5" y="1030" width="153" height="40" as="geometry" />
        </mxCell>
        <mxCell id="8tWyTucmSmF3DyOcgafZ-47" value="" style="edgeStyle=none;orthogonalLoop=1;jettySize=auto;html=1;rounded=0;fontFamily=Architects Daughter;fontSource=https%3A%2F%2Ffonts.googleapis.com%2Fcss%3Ffamily%3DArchitects%2BDaughter;fontSize=16;startSize=14;endArrow=open;endSize=14;sourcePerimeterSpacing=8;targetPerimeterSpacing=8;curved=1;exitX=0.5;exitY=1;exitDx=0;exitDy=0;entryX=0.5;entryY=0;entryDx=0;entryDy=0;" edge="1" parent="1" source="8tWyTucmSmF3DyOcgafZ-44" target="8tWyTucmSmF3DyOcgafZ-46">
          <mxGeometry width="140" relative="1" as="geometry">
            <mxPoint x="1556.25" y="1008" as="sourcePoint" />
            <mxPoint x="1556.25" y="1047" as="targetPoint" />
            <Array as="points" />
          </mxGeometry>
        </mxCell>
      </root>
    </mxGraphModel>
  </diagram>
</mxfile>
